<svg width="53" height="41" viewBox="0 0 53 41" fill="none" xmlns="http://www.w3.org/2000/svg">
<path d="M52.165 19.6247L46.6338 6.71844C46.4926 6.38518 46.2565 6.10084 45.9549 5.90084C45.6532 5.70085 45.2994 5.59405 44.9375 5.59375H39.4062V1.90625C39.4062 1.41726 39.212 0.948292 38.8662 0.602522C38.5205 0.256752 38.0515 0.0625 37.5625 0.0625H2.53125C2.04226 0.0625 1.57329 0.256752 1.22752 0.602522C0.881752 0.948292 0.6875 1.41726 0.6875 1.90625V33.25C0.6875 33.739 0.881752 34.208 1.22752 34.5537C1.57329 34.8995 2.04226 35.0938 2.53125 35.0938H6.47687C6.90146 36.6561 7.82835 38.0353 9.11454 39.0186C10.4007 40.0019 11.9747 40.5347 13.5938 40.5347C15.2128 40.5347 16.7868 40.0019 18.073 39.0186C19.3592 38.0353 20.286 36.6561 20.7106 35.0938H32.2894C32.714 36.6561 33.6408 38.0353 34.927 39.0186C36.2132 40.0019 37.7872 40.5347 39.4062 40.5347C41.0253 40.5347 42.5993 40.0019 43.8855 39.0186C45.1717 38.0353 46.0985 36.6561 46.5231 35.0938H50.4688C50.9577 35.0938 51.4267 34.8995 51.7725 34.5537C52.1182 34.208 52.3125 33.739 52.3125 33.25V20.3438C52.312 20.0966 52.2619 19.8521 52.165 19.6247ZM39.4062 9.28125H43.7206L47.6662 18.5H39.4062V9.28125ZM13.5938 36.9375C12.8644 36.9375 12.1515 36.7212 11.5451 36.316C10.9387 35.9109 10.466 35.3349 10.1869 34.6611C9.90785 33.9873 9.83482 33.2459 9.9771 32.5306C10.1194 31.8153 10.4706 31.1583 10.9863 30.6425C11.502 30.1268 12.159 29.7756 12.8744 29.6334C13.5897 29.4911 14.3311 29.5641 15.0049 29.8432C15.6787 30.1223 16.2546 30.5949 16.6598 31.2013C17.065 31.8077 17.2812 32.5207 17.2812 33.25C17.2812 34.228 16.8927 35.1659 16.2012 35.8575C15.5097 36.549 14.5717 36.9375 13.5938 36.9375ZM32.2894 31.4062H20.7106C20.286 29.8439 19.3592 28.4647 18.073 27.4814C16.7868 26.4981 15.2128 25.9653 13.5938 25.9653C11.9747 25.9653 10.4007 26.4981 9.11454 27.4814C7.82835 28.4647 6.90146 29.8439 6.47687 31.4062H4.375V3.75H35.7188V26.9075C34.8792 27.3948 34.1441 28.043 33.5556 28.815C32.9671 29.587 32.5368 30.4676 32.2894 31.4062ZM39.4062 36.9375C38.6769 36.9375 37.964 36.7212 37.3576 36.316C36.7512 35.9109 36.2785 35.3349 35.9994 34.6611C35.7203 33.9873 35.6473 33.2459 35.7896 32.5306C35.9319 31.8153 36.2831 31.1583 36.7988 30.6425C37.3145 30.1268 37.9715 29.7756 38.6869 29.6334C39.4022 29.4911 40.1436 29.5641 40.8174 29.8432C41.4912 30.1223 42.0671 30.5949 42.4723 31.2013C42.8775 31.8077 43.0938 32.5207 43.0938 33.25C43.0938 34.228 42.7052 35.1659 42.0137 35.8575C41.3222 36.549 40.3842 36.9375 39.4062 36.9375ZM48.625 31.4062H46.5231C46.1154 29.8271 45.1957 28.4277 43.908 27.4269C42.6203 26.426 41.0372 25.8803 39.4062 25.875V22.1875H48.625V31.4062Z" fill="white"/>
</svg>
