<svg width="42" height="42" viewBox="0 0 42 42" fill="none" xmlns="http://www.w3.org/2000/svg">
<path fill-rule="evenodd" clip-rule="evenodd" d="M40.5825 23.3468L18.7084 1.43068C16.7659 -0.511817 13.545 -0.443567 11.5159 1.59081L11.2823 1.82443L11.193 1.73518C8.94866 -0.511817 5.21591 -0.419941 2.85604 1.94256L2.18666 2.61456C-0.17321 4.97443 -0.26246 8.71243 1.98191 10.9594L2.07379 11.0513L1.64066 11.4871C-0.38846 13.5162 -0.46196 16.7423 1.48316 18.6901L23.3573 40.6062C25.2998 42.5513 28.5259 42.4804 30.5498 40.4487L40.4277 30.5524C42.4594 28.5181 42.5277 25.2946 40.5825 23.3468ZM9.01167 13.5661C6.73841 13.5661 4.89829 11.6393 4.89304 9.25843C4.89304 6.88018 6.73841 4.95343 9.01167 4.95343C11.2849 4.95343 13.1172 6.88281 13.125 9.25843C13.1172 11.6393 11.2797 13.5661 9.01167 13.5661ZM32.6393 34.3272L29.7938 31.4791C28.0823 32.6944 25.9377 33.0777 24.0608 32.4293C23.8468 32.3577 23.6496 32.2433 23.4813 32.093C23.3129 31.9427 23.177 31.7597 23.0817 31.5552C22.9817 31.3447 22.9256 31.1161 22.9165 30.8833C22.9075 30.6505 22.9458 30.4183 23.0292 30.2007C23.1911 29.7656 23.5156 29.4103 23.9342 29.2096C24.3527 29.0089 24.8329 28.9784 25.2735 29.1244C25.8983 29.3397 26.6123 29.2478 27.2712 28.9459L23.982 25.6437C21.4804 27.4339 18.1572 27.3814 16.128 25.3576C14.0858 23.3179 14.0412 19.9842 15.855 17.4878L13.0673 14.6974L14.7184 13.0463L17.5245 15.8419C19.2518 14.6318 21.399 14.2486 23.2785 14.8996C23.4952 14.9749 23.6944 15.0932 23.8643 15.2473C24.0341 15.4014 24.1712 15.5882 24.2672 15.7965C24.3633 16.0048 24.4164 16.2303 24.4233 16.4595C24.4302 16.6888 24.3909 16.9171 24.3075 17.1308C24.1413 17.5637 23.8153 17.9164 23.3968 18.1162C22.9783 18.3159 22.4991 18.3475 22.0579 18.2044C21.4332 17.9866 20.7244 18.0758 20.0682 18.3698L23.3809 21.6694C25.8668 19.9238 29.1507 19.9947 31.164 22.0054C33.1774 24.0188 33.2562 27.2896 31.5132 29.7623L34.3482 32.5868L32.6393 34.3272Z" fill="white"/>
<path fill-rule="evenodd" clip-rule="evenodd" d="M18.7006 22.8954C19.4041 23.5962 20.5328 23.6697 21.5382 23.1762L18.4197 20.0446C17.9236 21.0552 17.9944 22.1892 18.7006 22.8954Z" fill="black"/>
<path fill-rule="evenodd" clip-rule="evenodd" d="M28.6755 24.5465C27.9982 23.8666 26.922 23.78 25.9429 24.221L29.0036 27.2712C29.442 26.2974 29.3527 25.2211 28.6755 24.5465Z" fill="black"/>
</svg>
