<svg width="51" height="51" viewBox="0 0 51 51" fill="none" xmlns="http://www.w3.org/2000/svg">
<path d="M44.625 41.4375V51C44.3926 50.8672 44.0605 50.668 43.6289 50.4023C43.1973 50.1367 42.3008 49.4062 40.9395 48.2109C39.5781 47.0156 38.2168 45.6211 36.8555 44.0273C35.2285 44.4258 33.5684 44.625 31.875 44.625C29.4512 44.625 27.2183 44.376 25.1763 43.8779C23.1343 43.3799 21.4658 42.7656 20.1709 42.0352C18.876 41.3047 17.772 40.4912 16.8589 39.5947C15.9458 38.6982 15.2983 37.8682 14.9165 37.1045C14.5347 36.3408 14.3438 35.6602 14.3438 35.0625H19.125C23.4082 35.0625 27.2183 34.3154 30.5552 32.8213C33.8921 31.3271 36.54 29.1191 38.499 26.1973C40.458 23.2754 41.4375 19.8555 41.4375 15.9375C47.8125 19.1582 51 23.6738 51 29.4844C51 34.2324 48.875 38.2168 44.625 41.4375ZM19.125 31.875C17.4316 31.875 15.7715 31.6758 14.1445 31.2773C12.7832 32.8711 11.4551 34.249 10.1602 35.4111C8.86523 36.5732 7.90234 37.3369 7.27148 37.7021L6.375 38.25V28.6875C2.125 25.4668 0 21.4824 0 16.7344C0 13.7129 0.854981 10.9155 2.56494 8.34229C4.2749 5.76904 6.59912 3.73535 9.5376 2.24121C12.4761 0.74707 15.6802 0 19.1499 0C22.6196 0 25.8237 0.74707 28.7622 2.24121C31.7007 3.73535 34.0166 5.76904 35.71 8.34229C37.4033 10.9155 38.25 13.7129 38.25 16.7344C38.25 19.7559 37.3867 22.4287 35.6602 24.7529C33.9336 27.0771 31.626 28.8452 28.7373 30.0571C25.8486 31.269 22.6445 31.875 19.125 31.875ZM19.125 3.1875C16.2363 3.1875 13.5718 3.75195 11.1313 4.88086C8.69092 6.00977 6.75684 7.55371 5.3291 9.5127C3.90137 11.4717 3.1875 13.605 3.1875 15.9126C3.1875 18.2202 3.90137 20.3535 5.3291 22.3125C6.75684 24.2715 8.69092 25.8237 11.1313 26.9692C13.5718 28.1147 16.2363 28.6875 19.125 28.6875C22.0137 28.6875 24.6782 28.1147 27.1187 26.9692C29.5591 25.8237 31.4932 24.2715 32.9209 22.3125C34.3486 20.3535 35.0625 18.2202 35.0625 15.9126C35.0625 13.605 34.3486 11.4717 32.9209 9.5127C31.4932 7.55371 29.5591 6.00977 27.1187 4.88086C24.6782 3.75195 22.0137 3.1875 19.125 3.1875Z" fill="white"/>
</svg>
